<svg xmlns="http://www.w3.org/2000/svg" width="118" height="108" viewBox="0 0 118 108">
    <path fill="#1A1A1A" fill-opacity=".9" fill-rule="evenodd"
        d="M72,18 C75.7063336,18 79.1244957,19.9991035 80.9415674,23.2294532 L128.876964,108.447935 C130.829931,111.919877 130.93267,116.134661 129.151183,119.697633 L129,120 C127.161402,123.677196 123.403027,126 119.291796,126 L24.7082039,126 C20.5969734,126 16.8385982,123.677196 15,120 L14.8488166,119.697633 C13.0673304,116.134661 13.1700689,111.919877 15.1230365,108.447935 L63.0584326,23.2294532 C64.8755043,19.9991035 68.2936664,18 72,18 Z M69.0581295,38.8204471 C68.1004527,39.3591316 67.3090878,40.1504526 66.7703502,41.1080995 L30.7943456,105.058179 C29.1696226,107.946247 30.1937665,111.604588 33.0818349,113.22931 C33.9799862,113.734578 34.9931363,114 36.0236561,114 L107.970997,114 C111.284705,114 113.970997,111.313708 113.970997,108 C113.970997,106.969593 113.705633,105.95655 113.20047,105.058469 L77.2291343,41.1083895 C75.6045715,38.220231 71.946288,37.1958843 69.0581295,38.8204471 Z M72,96 C75.3137085,96 78,98.6862915 78,102 C78,105.313708 75.3137085,108 72,108 C68.6862915,108 66,105.313708 66,102 C66,98.6862915 68.6862915,96 72,96 Z M72,60 C75.3137085,60 78,62.6862915 78,66 L78,87 C78,90.3137085 75.3137085,93 72,93 C68.6862915,93 66,90.3137085 66,87 L66,66 C66,62.6862915 68.6862915,60 72,60 Z"
        transform="translate(-13 -18)" />
</svg>